Coordinates
version=1
nRows=9
nColumns=63
inDegrees=yes

Units are S.I. units (second, meters, Newtons, ...)
If the header above contains a line with 'inDegrees', this indicates whether rotational values are in degrees (yes) or radians (no).

endheader
time	pelvis_tilt	pelvis_list	pelvis_rotation	pelvis_tx	pelvis_ty	pelvis_tz	hip_flexion_r	hip_adduction_r	hip_rotation_r	knee_angle_r	knee_angle_r_beta	ankle_angle_r	subtalar_angle_r	mtp_angle_r	hip_flexion_l	hip_adduction_l	hip_rotation_l	knee_angle_l	knee_angle_l_beta	ankle_angle_l	subtalar_angle_l	mtp_angle_l	L5_S1_Flex_Ext	L5_S1_Lat_Bending	L5_S1_axial_rotation	L4_L5_Flex_Ext	L4_L5_Lat_Bending	L4_L5_axial_rotation	L3_L4_Flex_Ext	L3_L4_Lat_Bending	L3_L4_axial_rotation	L2_L3_Flex_Ext	L2_L3_Lat_Bending	L2_L3_axial_rotation	L1_L2_Flex_Ext	L1_L2_Lat_Bending	L1_L2_axial_rotation	L1_T12_Flex_Ext	L1_T12_Lat_Bending	L1_T12_axial_rotation	Abs_r3	Abs_r2	Abs_r1	Abs_t1	Abs_t2	neck_flexion	neck_bending	neck_rotation	arm_flex_r	arm_add_r	arm_rot_r	elbow_flex_r	pro_sup_r	wrist_flex_r	wrist_dev_r	arm_flex_l	arm_add_l	arm_rot_l	elbow_flex_l	pro_sup_l	wrist_flex_l	wrist_dev_l
5.458333	1.267655	-8.493486	95.464291	0.181728	0.982693	0.535277	5.969864	-0.290718	-16.112391	14.495512	0.252994	28.922819	9.713649	0.000000	2.147936	1.097350	2.238785	5.137887	0.089673	26.201559	-2.730998	0.000000	-0.282143	0.112253	-1.331894	-0.523967	0.149297	-1.415137	-0.463532	0.272932	-1.415137	-0.322461	0.272932	-1.165407	-0.261998	0.228907	-1.082164	-0.161216	0.173880	-0.998920	-2.015318	1.269830	-7.407593	0.000000	0.000000	13.669172	1.389705	-12.359693	-7.554369	-27.823441	23.859919	110.544471	89.329294	6.801365	9.125535	-15.803187	-11.353113	10.533301	75.131376	88.898018	7.215077	8.780612
5.479167	1.334761	-8.414609	95.626817	0.181548	0.983417	0.536058	5.978094	-0.208090	-16.190368	14.513032	0.253300	28.629299	9.391372	0.000000	2.147507	1.020309	2.245241	5.147119	0.089834	26.134882	-2.417925	0.000000	-0.287844	0.092098	-1.321416	-0.534556	0.122491	-1.404004	-0.472900	0.223928	-1.404004	-0.328977	0.223928	-1.156239	-0.267292	0.187807	-1.073650	-0.164474	0.142660	-0.991062	-2.056044	1.041836	-7.349319	0.000000	0.000000	13.471166	1.511399	-14.757520	-7.608263	-29.229779	20.046359	112.599603	88.469647	6.504387	10.763344	-15.303599	-11.671500	10.449216	73.418409	88.935790	7.939874	10.271684
5.500000	1.396969	-8.327898	95.777045	0.181278	0.984183	0.536912	5.986188	-0.136545	-16.233908	14.541024	0.253789	28.343894	9.048310	0.000000	2.150366	0.947513	2.109964	5.169367	0.090222	26.117173	-1.923805	0.000000	-0.296989	0.070753	-1.303127	-0.551539	0.094102	-1.384573	-0.487924	0.172029	-1.384573	-0.339429	0.172029	-1.140236	-0.275784	0.144280	-1.058791	-0.169700	0.109597	-0.977345	-2.121364	0.800374	-7.247603	0.000000	0.000000	13.130391	1.617865	-17.270969	-7.711722	-31.036880	14.866846	115.188033	87.355404	6.085881	12.175462	-14.789527	-12.088663	10.552431	71.794890	88.990391	8.139023	11.621371
5.520833	1.464752	-8.244739	95.922789	0.180869	0.984960	0.537787	5.999626	-0.081093	-16.345646	14.580029	0.254470	28.086848	8.821152	0.000000	2.163707	0.876276	1.926199	5.203661	0.090821	26.115265	-1.384775	0.000000	-0.308073	0.052052	-1.278101	-0.572122	0.069229	-1.357982	-0.506133	0.126558	-1.357982	-0.352096	0.126558	-1.118338	-0.286076	0.106144	-1.038457	-0.176033	0.080628	-0.958576	-2.200532	0.588818	-7.108413	0.000000	0.000000	12.692205	1.657441	-19.823477	-7.546650	-33.327879	8.624280	118.145784	85.798933	5.784967	13.326963	-14.250283	-12.626938	10.972065	70.249988	89.058933	7.685071	12.620904
5.541667	1.549788	-8.192804	96.057649	0.180359	0.985719	0.538638	6.043654	-0.023711	-16.480533	14.620728	0.255180	27.845451	8.658391	0.000000	2.213380	0.792265	1.650153	5.251937	0.091664	26.138349	-0.749293	0.000000	-0.317006	0.038582	-1.233083	-0.588711	0.051315	-1.310151	-0.520809	0.093809	-1.310151	-0.362306	0.093809	-1.078948	-0.294371	0.078677	-1.001880	-0.181137	0.059764	-0.924812	-2.264340	0.436451	-6.858038	0.000000	0.000000	12.206396	1.608310	-22.386863	-6.941827	-36.196353	1.608408	121.311577	83.701247	5.758910	14.080108	-13.613822	-13.340341	11.917922	68.764940	89.138803	6.511896	13.155840
5.562500	1.641151	-8.175483	96.187155	0.179799	0.986457	0.539441	6.120213	0.026007	-16.638856	14.666925	0.255986	27.617311	8.552876	0.000000	2.300339	0.705596	1.288103	5.316654	0.092793	26.170146	-0.044344	0.000000	-0.325023	0.029606	-1.182331	-0.603600	0.039376	-1.256226	-0.533980	0.071984	-1.256226	-0.371469	0.071984	-1.034539	-0.301816	0.060372	-0.960644	-0.185718	0.045860	-0.886748	-2.321606	0.334908	-6.575769	0.000000	0.000000	11.744599	1.465966	-24.819988	-5.343324	-39.740261	-5.381860	124.481411	81.166068	6.110756	14.330690	-12.942158	-14.229788	13.340550	67.377481	89.224493	4.663490	13.019997
5.583333	1.732386	-8.207749	96.295980	0.179286	0.987160	0.540168	6.240273	0.078078	-16.735894	14.703195	0.256619	27.378521	8.404034	0.000000	2.436541	0.615835	0.797311	5.399626	0.094241	26.213089	0.769278	0.000000	-0.330934	0.024367	-1.127601	-0.614577	0.032409	-1.198076	-0.543691	0.059247	-1.198076	-0.378224	0.059247	-0.986651	-0.307305	0.049690	-0.916176	-0.189095	0.037745	-0.845701	-2.363825	0.275648	-6.271379	0.000000	0.000000	11.383117	1.286617	-27.034484	-2.277925	-43.873768	-11.594003	127.443897	78.614466	6.686504	13.783256	-12.294534	-15.298034	15.150718	66.138736	89.312230	2.353987	12.245377
5.604167	1.821530	-8.299485	96.357231	0.178887	0.987793	0.540803	6.413109	0.133885	-16.775485	14.726645	0.257028	27.129105	8.249488	0.000000	2.625649	0.522758	0.170742	5.495460	0.095914	26.260200	1.661963	0.000000	-0.334015	0.023537	-1.073445	-0.620300	0.031304	-1.140535	-0.548754	0.057228	-1.140535	-0.381746	0.057228	-0.939264	-0.310167	0.047997	-0.872174	-0.190856	0.036459	-0.805084	-2.385838	0.266255	-5.970178	0.000000	0.000000	11.202927	1.093699	-28.930123	2.680338	-48.425867	-16.343602	130.000775	76.378770	7.372066	12.460763	-11.755287	-16.494530	17.182072	65.085872	89.393493	-0.183844	10.822421
5.625000	1.907403	-8.451674	96.358759	0.178646	0.988321	0.541365	6.641021	0.196172	-16.738866	14.735488	0.257183	26.880794	8.082735	0.000000	2.866147	0.426550	-0.574870	5.598318	0.097709	26.303516	2.600275	0.000000	-0.334791	0.027778	-1.030498	-0.621740	0.036944	-1.094904	-0.550028	0.067539	-1.094904	-0.382632	0.067539	-0.901686	-0.310887	0.056644	-0.837279	-0.191299	0.043028	-0.772873	-2.391377	0.314227	-5.731319	0.000000	0.000000	11.295436	0.930834	-30.386917	9.484231	-53.100985	-19.439747	131.969932	74.732974	8.254973	10.464274	-11.422850	-17.738654	19.211918	64.241022	89.456997	-2.766867	8.702487
